<mxfile host="app.diagrams.net" modified="2023-11-07T21:19:32.445Z" agent="Mozilla/5.0 (Windows NT 10.0; Win64; x64) AppleWebKit/537.36 (KHTML, like Gecko) Chrome/119.0.0.0 Safari/537.36" etag="mNUV31F4l9LT41R7FBiR" version="22.0.8" type="device">
  <diagram id="CaYxk0USNFWt2vr_ihTA" name="Page-1">
    <mxGraphModel dx="882" dy="590" grid="1" gridSize="10" guides="1" tooltips="1" connect="1" arrows="1" fold="1" page="1" pageScale="1" pageWidth="850" pageHeight="1100" math="0" shadow="0">
      <root>
        <mxCell id="0" />
        <mxCell id="1" parent="0" />
        <mxCell id="XQrIiuNdt2-RY2GTPRF8-9" style="edgeStyle=orthogonalEdgeStyle;rounded=0;orthogonalLoop=1;jettySize=auto;html=1;exitX=1;exitY=0.5;exitDx=0;exitDy=0;entryX=0;entryY=0.5;entryDx=0;entryDy=0;" parent="1" source="XQrIiuNdt2-RY2GTPRF8-1" target="XQrIiuNdt2-RY2GTPRF8-2" edge="1">
          <mxGeometry relative="1" as="geometry" />
        </mxCell>
        <mxCell id="XQrIiuNdt2-RY2GTPRF8-1" value="User device" style="rounded=1;whiteSpace=wrap;html=1;" parent="1" vertex="1">
          <mxGeometry x="40" y="40" width="120" height="60" as="geometry" />
        </mxCell>
        <mxCell id="XQrIiuNdt2-RY2GTPRF8-10" style="edgeStyle=orthogonalEdgeStyle;rounded=0;orthogonalLoop=1;jettySize=auto;html=1;exitX=1;exitY=0.5;exitDx=0;exitDy=0;" parent="1" source="XQrIiuNdt2-RY2GTPRF8-2" target="XQrIiuNdt2-RY2GTPRF8-3" edge="1">
          <mxGeometry relative="1" as="geometry" />
        </mxCell>
        <mxCell id="XQrIiuNdt2-RY2GTPRF8-2" value="Load balancer" style="rounded=1;whiteSpace=wrap;html=1;" parent="1" vertex="1">
          <mxGeometry x="240" y="40" width="120" height="60" as="geometry" />
        </mxCell>
        <mxCell id="XQrIiuNdt2-RY2GTPRF8-11" style="edgeStyle=orthogonalEdgeStyle;rounded=0;orthogonalLoop=1;jettySize=auto;html=1;exitX=1;exitY=0.5;exitDx=0;exitDy=0;entryX=0;entryY=0.5;entryDx=0;entryDy=0;" parent="1" source="XQrIiuNdt2-RY2GTPRF8-3" target="XQrIiuNdt2-RY2GTPRF8-4" edge="1">
          <mxGeometry relative="1" as="geometry" />
        </mxCell>
        <mxCell id="XQrIiuNdt2-RY2GTPRF8-3" value="Navigation servers" style="rounded=1;whiteSpace=wrap;html=1;" parent="1" vertex="1">
          <mxGeometry x="440" y="40" width="120" height="60" as="geometry" />
        </mxCell>
        <mxCell id="XQrIiuNdt2-RY2GTPRF8-12" style="edgeStyle=orthogonalEdgeStyle;rounded=0;orthogonalLoop=1;jettySize=auto;html=1;exitX=0.5;exitY=1;exitDx=0;exitDy=0;" parent="1" source="XQrIiuNdt2-RY2GTPRF8-4" target="XQrIiuNdt2-RY2GTPRF8-6" edge="1">
          <mxGeometry relative="1" as="geometry" />
        </mxCell>
        <mxCell id="XQrIiuNdt2-RY2GTPRF8-4" value="Kafka" style="rounded=1;whiteSpace=wrap;html=1;" parent="1" vertex="1">
          <mxGeometry x="640" y="40" width="120" height="60" as="geometry" />
        </mxCell>
        <mxCell id="lt6ngdCt0ntS-nPsKijc-6" style="edgeStyle=orthogonalEdgeStyle;rounded=0;orthogonalLoop=1;jettySize=auto;html=1;exitX=0;exitY=0.5;exitDx=0;exitDy=0;entryX=1;entryY=0.5;entryDx=0;entryDy=0;" edge="1" parent="1" source="XQrIiuNdt2-RY2GTPRF8-6" target="lt6ngdCt0ntS-nPsKijc-5">
          <mxGeometry relative="1" as="geometry" />
        </mxCell>
        <mxCell id="XQrIiuNdt2-RY2GTPRF8-6" value="Data analytics engine" style="rounded=1;whiteSpace=wrap;html=1;" parent="1" vertex="1">
          <mxGeometry x="640" y="160" width="120" height="60" as="geometry" />
        </mxCell>
        <mxCell id="XQrIiuNdt2-RY2GTPRF8-15" style="edgeStyle=orthogonalEdgeStyle;rounded=0;orthogonalLoop=1;jettySize=auto;html=1;exitX=0.5;exitY=1;exitDx=0;exitDy=0;entryX=0.5;entryY=0;entryDx=0;entryDy=0;" parent="1" source="XQrIiuNdt2-RY2GTPRF8-7" target="XQrIiuNdt2-RY2GTPRF8-8" edge="1">
          <mxGeometry relative="1" as="geometry" />
        </mxCell>
        <mxCell id="lt6ngdCt0ntS-nPsKijc-12" style="edgeStyle=orthogonalEdgeStyle;rounded=0;orthogonalLoop=1;jettySize=auto;html=1;exitX=0;exitY=0.5;exitDx=0;exitDy=0;entryX=1;entryY=0.25;entryDx=0;entryDy=0;" edge="1" parent="1" source="XQrIiuNdt2-RY2GTPRF8-7" target="lt6ngdCt0ntS-nPsKijc-1">
          <mxGeometry relative="1" as="geometry" />
        </mxCell>
        <mxCell id="XQrIiuNdt2-RY2GTPRF8-7" value="Map update service" style="rounded=1;whiteSpace=wrap;html=1;" parent="1" vertex="1">
          <mxGeometry x="320" y="160" width="120" height="60" as="geometry" />
        </mxCell>
        <mxCell id="lt6ngdCt0ntS-nPsKijc-13" style="edgeStyle=orthogonalEdgeStyle;rounded=0;orthogonalLoop=1;jettySize=auto;html=1;exitX=0;exitY=0.5;exitDx=0;exitDy=0;entryX=1;entryY=0.25;entryDx=0;entryDy=0;" edge="1" parent="1" source="XQrIiuNdt2-RY2GTPRF8-8" target="lt6ngdCt0ntS-nPsKijc-1">
          <mxGeometry relative="1" as="geometry" />
        </mxCell>
        <mxCell id="XQrIiuNdt2-RY2GTPRF8-8" value="Graph processing service" style="rounded=1;whiteSpace=wrap;html=1;" parent="1" vertex="1">
          <mxGeometry x="320" y="280" width="120" height="60" as="geometry" />
        </mxCell>
        <mxCell id="lt6ngdCt0ntS-nPsKijc-1" value="" style="swimlane;startSize=0;" vertex="1" parent="1">
          <mxGeometry x="40" y="160" width="160" height="280" as="geometry" />
        </mxCell>
        <mxCell id="lt6ngdCt0ntS-nPsKijc-2" value="RDBMS" style="rounded=1;whiteSpace=wrap;html=1;" vertex="1" parent="lt6ngdCt0ntS-nPsKijc-1">
          <mxGeometry x="40" y="40" width="80" height="40" as="geometry" />
        </mxCell>
        <mxCell id="lt6ngdCt0ntS-nPsKijc-10" style="edgeStyle=orthogonalEdgeStyle;rounded=0;orthogonalLoop=1;jettySize=auto;html=1;exitX=0.5;exitY=1;exitDx=0;exitDy=0;entryX=0.5;entryY=0;entryDx=0;entryDy=0;" edge="1" parent="lt6ngdCt0ntS-nPsKijc-1" source="lt6ngdCt0ntS-nPsKijc-3" target="lt6ngdCt0ntS-nPsKijc-4">
          <mxGeometry relative="1" as="geometry" />
        </mxCell>
        <mxCell id="lt6ngdCt0ntS-nPsKijc-3" value="Key-values store" style="rounded=1;whiteSpace=wrap;html=1;" vertex="1" parent="lt6ngdCt0ntS-nPsKijc-1">
          <mxGeometry x="40" y="120" width="80" height="40" as="geometry" />
        </mxCell>
        <mxCell id="lt6ngdCt0ntS-nPsKijc-4" value="Routing servers" style="rounded=1;whiteSpace=wrap;html=1;" vertex="1" parent="lt6ngdCt0ntS-nPsKijc-1">
          <mxGeometry x="40" y="200" width="80" height="40" as="geometry" />
        </mxCell>
        <mxCell id="lt6ngdCt0ntS-nPsKijc-7" style="edgeStyle=orthogonalEdgeStyle;rounded=0;orthogonalLoop=1;jettySize=auto;html=1;exitX=0;exitY=0.5;exitDx=0;exitDy=0;entryX=1;entryY=0.5;entryDx=0;entryDy=0;" edge="1" parent="1" source="lt6ngdCt0ntS-nPsKijc-5" target="XQrIiuNdt2-RY2GTPRF8-7">
          <mxGeometry relative="1" as="geometry" />
        </mxCell>
        <mxCell id="lt6ngdCt0ntS-nPsKijc-5" value="Pub-sub topic" style="rounded=1;whiteSpace=wrap;html=1;" vertex="1" parent="1">
          <mxGeometry x="480" y="160" width="120" height="60" as="geometry" />
        </mxCell>
        <mxCell id="lt6ngdCt0ntS-nPsKijc-14" value="Location data" style="text;html=1;strokeColor=none;fillColor=none;align=center;verticalAlign=middle;whiteSpace=wrap;rounded=0;" vertex="1" parent="1">
          <mxGeometry x="560" y="40" width="80" height="30" as="geometry" />
        </mxCell>
      </root>
    </mxGraphModel>
  </diagram>
</mxfile>
